<svg id="Слой_2" data-name="Слой 2" xmlns="http://www.w3.org/2000/svg" viewBox="0 0 237.02 177.77"><title>logo travelwell2</title><path d="M64,33.18V54c0,7-1,14.74.29,21.65,2.36,13,18.86,16.8,27.51,7.44,5-5.37,6.77-14.64,9.29-21.31l-5,1.32c5.87,6.67,16.19,6.33,22.27,0L113.21,61c0,5.14-1,11.5,1.11,16.34A13.48,13.48,0,0,0,123.2,85c5,1.3,10.24.87,10.66,7.75.24,3.83,6.24,3.86,6,0a13.74,13.74,0,0,0-5.3-10.6c-3.63-2.73-7.62-1.67-11.36-3.53-5.8-2.89-4-12.31-4-17.62a3,3,0,0,0-5.12-2.12c-3.92,4.08-10,4.27-13.78,0-1.62-1.84-4.29-.63-5,1.32-2,5.41-3.57,11.45-6.3,16.54-3.25,6.07-11.83,7.91-16.61,2.45C70.2,76.65,70,73.7,70,70.62V33.18c0-3.86-6-3.87-6,0Z"/><path d="M153.78,56.07c-.66,14.82-23.11,15-23.14,0s22.47-14.83,23.14,0c.17,3.85,6.17,3.87,6,0-.43-9.53-7.7-17.56-17.57-17.56a17.57,17.57,0,1,0,0,35.13c9.87,0,17.14-8,17.57-17.57C160,52.21,154,52.22,153.78,56.07Z"/><path d="M154.65,41.33c0,6.85-.21,13.74,0,20.58.32,10.27,13.1,14.06,18.11,4.46,1.78-3.42-3.39-6.45-5.18-3-2.42,4.63-6.58,2.49-6.93-1.66-.2-2.36,0-4.83,0-7.21V41.33c0-3.86-6-3.86-6,0Z"/><path d="M133.42,106.88c-5.65,8-20.14,16.35-29.48,8.83a11.71,11.71,0,0,1-.92-17.2c5.92-6,15.2-3.4,18.83,3.59l.47-3.63c-6,5.81-15.27,6.27-22.82,4-3.7-1.13-5.28,4.66-1.59,5.79,9.62,2.94,21.13,1.78,28.65-5.51a3.08,3.08,0,0,0,.47-3.64c-4.52-8.7-15.29-12.67-24.14-7.85a17.76,17.76,0,0,0-7.44,23.23c3.86,7.82,12,10.46,20.18,9.59,9.72-1,17.37-6.24,23-14.13,2.24-3.16-3-6.16-5.18-3Z"/><path d="M144.59,71.42v38c0,5.24-.72,10.93,2.53,15.44,6.2,8.61,19,6.2,23.3-2.86,1.64-3.47-3.53-6.52-5.18-3-2.23,4.74-8.3,7.48-12.55,3.23-1.87-1.87-2.05-4.16-2.1-6.58-.12-5,0-10,0-14.95V71.42c0-3.86-6-3.86-6,0Z"/><path d="M133.86,92.7v16.88c0,5.94-.66,12.43,1.46,18.09,7.6,20.31,36,19.15,44.3.15,1.53-3.51-3.64-6.57-5.18-3-3.62,8.26-12.17,13.75-21.31,11.57-8.21-2-13.07-9.13-13.27-17.3-.21-8.78,0-17.58,0-26.36,0-3.87-6-3.87-6,0Z"/><path d="M55.09,57.54c6.59-6.39,16.84-6.95,25.13-4.39,3.7,1.14,5.28-4.65,1.6-5.79-10.37-3.19-22.87-1.93-31,5.94-2.78,2.69,1.47,6.93,4.24,4.24Z"/><path d="M55.07,110.84c0,4.62-1,10.48.67,14.9,3.22,8.7,15.18,8.18,19,.3,1.66-3.46-3.51-6.51-5.18-3-1.29,2.68-4.75,4.62-7.26,2.06-1.27-1.31-1.19-3-1.19-4.65v-9.58c0-3.86-6-3.87-6,0Z"/><path d="M83.14,84.55v31.2c0,4,0,14.75-7,9.19-1.25-1-.91-.53-1-2.37-.06-1.46,0-2.94,0-4.4v-7.33c0-3.86-6-3.87-6,0,0,6-1.91,14.45,3.14,18.87,6.91,6,16.55.56,16.89-7.93.5-12.37,0-24.85,0-37.23,0-3.86-6-3.87-6,0Z"/><path d="M61.07,117.45c0-4.42,1-10.39-1.23-14.42-4.15-7.44-14.88-6.44-18.39,1-1.64,3.48,3.53,6.52,5.18,3,2.33-4.92,8.31-3.69,8.44,1.66.08,2.91,0,5.84,0,8.75,0,3.87,6,3.87,6,0Z"/></svg>